<svg width="411" height="216" viewBox="0 0 411 216" fill="none" xmlns="http://www.w3.org/2000/svg">
<path d="M37.28 19V5H38.5L44.9 15.92H44.26L50.6 5H51.82V19H50.4V7.22H50.74L44.9 17.22H44.2L38.32 7.22H38.7V19H37.28ZM60.5416 19.1C59.4482 19.1 58.4882 18.8733 57.6616 18.42C56.8349 17.9533 56.1882 17.32 55.7216 16.52C55.2549 15.7067 55.0216 14.78 55.0216 13.74C55.0216 12.7 55.2416 11.78 55.6816 10.98C56.1349 10.18 56.7482 9.55333 57.5216 9.1C58.3082 8.63333 59.1882 8.4 60.1616 8.4C61.1482 8.4 62.0216 8.62667 62.7816 9.08C63.5549 9.52 64.1616 10.1467 64.6016 10.96C65.0416 11.76 65.2616 12.6867 65.2616 13.74C65.2616 13.8067 65.2549 13.88 65.2416 13.96C65.2416 14.0267 65.2416 14.1 65.2416 14.18H56.1016V13.12H64.4816L63.9216 13.54C63.9216 12.78 63.7549 12.1067 63.4216 11.52C63.1016 10.92 62.6616 10.4533 62.1016 10.12C61.5416 9.78667 60.8949 9.62 60.1616 9.62C59.4416 9.62 58.7949 9.78667 58.2216 10.12C57.6482 10.4533 57.2016 10.92 56.8816 11.52C56.5616 12.12 56.4016 12.8067 56.4016 13.58V13.8C56.4016 14.6 56.5749 15.3067 56.9216 15.92C57.2816 16.52 57.7749 16.9933 58.4016 17.34C59.0416 17.6733 59.7682 17.84 60.5816 17.84C61.2216 17.84 61.8149 17.7267 62.3616 17.5C62.9216 17.2733 63.4016 16.9267 63.8016 16.46L64.6016 17.38C64.1349 17.94 63.5482 18.3667 62.8416 18.66C62.1482 18.9533 61.3816 19.1 60.5416 19.1ZM70.9719 19.1C70.1052 19.1 69.2852 18.98 68.5119 18.74C67.7385 18.4867 67.1319 18.1733 66.6919 17.8L67.3319 16.68C67.7585 17 68.3052 17.28 68.9719 17.52C69.6385 17.7467 70.3385 17.86 71.0719 17.86C72.0719 17.86 72.7919 17.7067 73.2319 17.4C73.6719 17.08 73.8919 16.66 73.8919 16.14C73.8919 15.7533 73.7652 15.4533 73.5119 15.24C73.2719 15.0133 72.9519 14.8467 72.5519 14.74C72.1519 14.62 71.7052 14.52 71.2119 14.44C70.7185 14.36 70.2252 14.2667 69.7319 14.16C69.2519 14.0533 68.8119 13.9 68.4119 13.7C68.0119 13.4867 67.6852 13.2 67.4319 12.84C67.1919 12.48 67.0719 12 67.0719 11.4C67.0719 10.8267 67.2319 10.3133 67.5519 9.86C67.8719 9.40667 68.3385 9.05333 68.9519 8.8C69.5785 8.53333 70.3385 8.4 71.2319 8.4C71.9119 8.4 72.5919 8.49333 73.2719 8.68C73.9519 8.85333 74.5119 9.08667 74.9519 9.38L74.3319 10.52C73.8652 10.2 73.3652 9.97333 72.8319 9.84C72.2985 9.69333 71.7652 9.62 71.2319 9.62C70.2852 9.62 69.5852 9.78667 69.1319 10.12C68.6919 10.44 68.4719 10.8533 68.4719 11.36C68.4719 11.76 68.5919 12.0733 68.8319 12.3C69.0852 12.5267 69.4119 12.7067 69.8119 12.84C70.2252 12.96 70.6719 13.06 71.1519 13.14C71.6452 13.22 72.1319 13.32 72.6119 13.44C73.1052 13.5467 73.5519 13.7 73.9519 13.9C74.3652 14.0867 74.6919 14.36 74.9319 14.72C75.1852 15.0667 75.3119 15.5267 75.3119 16.1C75.3119 16.7133 75.1385 17.2467 74.7919 17.7C74.4585 18.14 73.9652 18.4867 73.3119 18.74C72.6719 18.98 71.8919 19.1 70.9719 19.1ZM82.2575 19.1C81.3642 19.1 80.5842 18.9333 79.9175 18.6C79.2508 18.2667 78.7308 17.7667 78.3575 17.1C77.9975 16.4333 77.8175 15.6 77.8175 14.6V8.5H79.2375V14.44C79.2375 15.56 79.5108 16.4067 80.0575 16.98C80.6175 17.54 81.3975 17.82 82.3975 17.82C83.1308 17.82 83.7642 17.6733 84.2975 17.38C84.8442 17.0733 85.2575 16.6333 85.5375 16.06C85.8308 15.4867 85.9775 14.8 85.9775 14V8.5H87.3975V19H86.0375V16.12L86.2575 16.64C85.9242 17.4133 85.4042 18.02 84.6975 18.46C84.0042 18.8867 83.1908 19.1 82.2575 19.1ZM91.355 19V8.5H92.715V11.36L92.575 10.86C92.8683 10.06 93.3617 9.45333 94.055 9.04C94.7483 8.61333 95.6083 8.4 96.635 8.4V9.78C96.5817 9.78 96.5283 9.78 96.475 9.78C96.4217 9.76667 96.3683 9.76 96.315 9.76C95.2083 9.76 94.3417 10.1 93.715 10.78C93.0883 11.4467 92.775 12.4 92.775 13.64V19H91.355ZM103.588 19.1C102.495 19.1 101.535 18.8733 100.708 18.42C99.8818 17.9533 99.2351 17.32 98.7684 16.52C98.3018 15.7067 98.0684 14.78 98.0684 13.74C98.0684 12.7 98.2884 11.78 98.7284 10.98C99.1818 10.18 99.7951 9.55333 100.568 9.1C101.355 8.63333 102.235 8.4 103.208 8.4C104.195 8.4 105.068 8.62667 105.828 9.08C106.602 9.52 107.208 10.1467 107.648 10.96C108.088 11.76 108.308 12.6867 108.308 13.74C108.308 13.8067 108.302 13.88 108.288 13.96C108.288 14.0267 108.288 14.1 108.288 14.18H99.1484V13.12H107.528L106.968 13.54C106.968 12.78 106.802 12.1067 106.468 11.52C106.148 10.92 105.708 10.4533 105.148 10.12C104.588 9.78667 103.942 9.62 103.208 9.62C102.488 9.62 101.842 9.78667 101.268 10.12C100.695 10.4533 100.248 10.92 99.9284 11.52C99.6084 12.12 99.4484 12.8067 99.4484 13.58V13.8C99.4484 14.6 99.6218 15.3067 99.9684 15.92C100.328 16.52 100.822 16.9933 101.448 17.34C102.088 17.6733 102.815 17.84 103.628 17.84C104.268 17.84 104.862 17.7267 105.408 17.5C105.968 17.2733 106.448 16.9267 106.848 16.46L107.648 17.38C107.182 17.94 106.595 18.3667 105.888 18.66C105.195 18.9533 104.428 19.1 103.588 19.1ZM120.613 19.1C119.613 19.1 118.713 18.8733 117.913 18.42C117.126 17.9667 116.506 17.34 116.053 16.54C115.6 15.7267 115.373 14.7933 115.373 13.74C115.373 12.6733 115.6 11.74 116.053 10.94C116.506 10.14 117.126 9.52 117.913 9.08C118.713 8.62667 119.613 8.4 120.613 8.4C121.533 8.4 122.353 8.60667 123.073 9.02C123.806 9.43333 124.386 10.04 124.813 10.84C125.253 11.6267 125.473 12.5933 125.473 13.74C125.473 14.8733 125.26 15.84 124.833 16.64C124.406 17.44 123.826 18.0533 123.093 18.48C122.373 18.8933 121.546 19.1 120.613 19.1ZM120.713 17.84C121.46 17.84 122.126 17.6733 122.713 17.34C123.313 16.9933 123.78 16.5133 124.113 15.9C124.46 15.2733 124.633 14.5533 124.633 13.74C124.633 12.9133 124.46 12.1933 124.113 11.58C123.78 10.9667 123.313 10.4933 122.713 10.16C122.126 9.81333 121.46 9.64 120.713 9.64C119.98 9.64 119.32 9.81333 118.733 10.16C118.146 10.4933 117.68 10.9667 117.333 11.58C116.986 12.1933 116.813 12.9133 116.813 13.74C116.813 14.5533 116.986 15.2733 117.333 15.9C117.68 16.5133 118.146 16.9933 118.733 17.34C119.32 17.6733 119.98 17.84 120.713 17.84ZM124.673 19V15.84L124.813 13.72L124.613 11.6V4.16H126.033V19H124.673ZM134.448 19.1C133.354 19.1 132.394 18.8733 131.568 18.42C130.741 17.9533 130.094 17.32 129.628 16.52C129.161 15.7067 128.928 14.78 128.928 13.74C128.928 12.7 129.148 11.78 129.588 10.98C130.041 10.18 130.654 9.55333 131.428 9.1C132.214 8.63333 133.094 8.4 134.068 8.4C135.054 8.4 135.928 8.62667 136.688 9.08C137.461 9.52 138.068 10.1467 138.508 10.96C138.948 11.76 139.168 12.6867 139.168 13.74C139.168 13.8067 139.161 13.88 139.148 13.96C139.148 14.0267 139.148 14.1 139.148 14.18H130.008V13.12H138.388L137.828 13.54C137.828 12.78 137.661 12.1067 137.328 11.52C137.008 10.92 136.568 10.4533 136.008 10.12C135.448 9.78667 134.801 9.62 134.068 9.62C133.348 9.62 132.701 9.78667 132.128 10.12C131.554 10.4533 131.108 10.92 130.788 11.52C130.468 12.12 130.308 12.8067 130.308 13.58V13.8C130.308 14.6 130.481 15.3067 130.828 15.92C131.188 16.52 131.681 16.9933 132.308 17.34C132.948 17.6733 133.674 17.84 134.488 17.84C135.128 17.84 135.721 17.7267 136.268 17.5C136.828 17.2733 137.308 16.9267 137.708 16.46L138.508 17.38C138.041 17.94 137.454 18.3667 136.748 18.66C136.054 18.9533 135.288 19.1 134.448 19.1ZM147.293 19V4.16H148.713V19H147.293ZM159.244 19V16.68L159.184 16.3V12.42C159.184 11.5267 158.93 10.84 158.424 10.36C157.93 9.88 157.19 9.64 156.204 9.64C155.524 9.64 154.877 9.75333 154.264 9.98C153.65 10.2067 153.13 10.5067 152.704 10.88L152.064 9.82C152.597 9.36667 153.237 9.02 153.984 8.78C154.73 8.52667 155.517 8.4 156.344 8.4C157.704 8.4 158.75 8.74 159.484 9.42C160.23 10.0867 160.604 11.1067 160.604 12.48V19H159.244ZM155.624 19.1C154.837 19.1 154.15 18.9733 153.564 18.72C152.99 18.4533 152.55 18.0933 152.244 17.64C151.937 17.1733 151.784 16.64 151.784 16.04C151.784 15.4933 151.91 15 152.164 14.56C152.43 14.1067 152.857 13.7467 153.444 13.48C154.044 13.2 154.844 13.06 155.844 13.06H159.464V14.12H155.884C154.87 14.12 154.164 14.3 153.764 14.66C153.377 15.02 153.184 15.4667 153.184 16C153.184 16.6 153.417 17.08 153.884 17.44C154.35 17.8 155.004 17.98 155.844 17.98C156.644 17.98 157.33 17.8 157.904 17.44C158.49 17.0667 158.917 16.5333 159.184 15.84L159.504 16.82C159.237 17.5133 158.77 18.0667 158.104 18.48C157.45 18.8933 156.624 19.1 155.624 19.1ZM175.115 19.1C174.208 19.1 173.388 18.8933 172.655 18.48C171.922 18.0533 171.335 17.4467 170.895 16.66C170.468 15.86 170.255 14.8867 170.255 13.74C170.255 12.5933 170.468 11.6267 170.895 10.84C171.322 10.04 171.902 9.43333 172.635 9.02C173.368 8.60667 174.195 8.4 175.115 8.4C176.115 8.4 177.008 8.62667 177.795 9.08C178.595 9.52 179.222 10.1467 179.675 10.96C180.128 11.76 180.355 12.6867 180.355 13.74C180.355 14.8067 180.128 15.74 179.675 16.54C179.222 17.34 178.595 17.9667 177.795 18.42C177.008 18.8733 176.115 19.1 175.115 19.1ZM169.695 22.88V8.5H171.055V11.66L170.915 13.76L171.115 15.88V22.88H169.695ZM175.015 17.84C175.762 17.84 176.428 17.6733 177.015 17.34C177.602 16.9933 178.068 16.5133 178.415 15.9C178.762 15.2733 178.935 14.5533 178.935 13.74C178.935 12.9267 178.762 12.2133 178.415 11.6C178.068 10.9867 177.602 10.5067 177.015 10.16C176.428 9.81333 175.762 9.64 175.015 9.64C174.268 9.64 173.595 9.81333 172.995 10.16C172.408 10.5067 171.942 10.9867 171.595 11.6C171.262 12.2133 171.095 12.9267 171.095 13.74C171.095 14.5533 171.262 15.2733 171.595 15.9C171.942 16.5133 172.408 16.9933 172.995 17.34C173.595 17.6733 174.268 17.84 175.015 17.84ZM183.25 19V8.5H184.61V11.36L184.47 10.86C184.763 10.06 185.256 9.45333 185.95 9.04C186.643 8.61333 187.503 8.4 188.53 8.4V9.78C188.476 9.78 188.423 9.78 188.37 9.78C188.316 9.76667 188.263 9.76 188.21 9.76C187.103 9.76 186.236 10.1 185.61 10.78C184.983 11.4467 184.67 12.4 184.67 13.64V19H183.25ZM195.303 19.1C194.29 19.1 193.376 18.8733 192.563 18.42C191.763 17.9533 191.13 17.32 190.663 16.52C190.196 15.7067 189.963 14.78 189.963 13.74C189.963 12.6867 190.196 11.76 190.663 10.96C191.13 10.16 191.763 9.53333 192.563 9.08C193.363 8.62667 194.276 8.4 195.303 8.4C196.343 8.4 197.263 8.62667 198.063 9.08C198.876 9.53333 199.51 10.16 199.963 10.96C200.43 11.76 200.663 12.6867 200.663 13.74C200.663 14.78 200.43 15.7067 199.963 16.52C199.51 17.32 198.876 17.9533 198.063 18.42C197.25 18.8733 196.33 19.1 195.303 19.1ZM195.303 17.84C196.063 17.84 196.736 17.6733 197.323 17.34C197.91 16.9933 198.37 16.5133 198.703 15.9C199.05 15.2733 199.223 14.5533 199.223 13.74C199.223 12.9133 199.05 12.1933 198.703 11.58C198.37 10.9667 197.91 10.4933 197.323 10.16C196.736 9.81333 196.07 9.64 195.323 9.64C194.576 9.64 193.91 9.81333 193.323 10.16C192.736 10.4933 192.27 10.9667 191.923 11.58C191.576 12.1933 191.403 12.9133 191.403 13.74C191.403 14.5533 191.576 15.2733 191.923 15.9C192.27 16.5133 192.736 16.9933 193.323 17.34C193.91 17.6733 194.57 17.84 195.303 17.84ZM207.742 19.1C206.742 19.1 205.842 18.8733 205.042 18.42C204.255 17.9667 203.635 17.34 203.182 16.54C202.729 15.7267 202.502 14.7933 202.502 13.74C202.502 12.6733 202.729 11.74 203.182 10.94C203.635 10.14 204.255 9.52 205.042 9.08C205.842 8.62667 206.742 8.4 207.742 8.4C208.662 8.4 209.482 8.60667 210.202 9.02C210.935 9.43333 211.515 10.04 211.942 10.84C212.382 11.6267 212.602 12.5933 212.602 13.74C212.602 14.8733 212.389 15.84 211.962 16.64C211.535 17.44 210.955 18.0533 210.222 18.48C209.502 18.8933 208.675 19.1 207.742 19.1ZM207.842 17.84C208.589 17.84 209.255 17.6733 209.842 17.34C210.442 16.9933 210.909 16.5133 211.242 15.9C211.589 15.2733 211.762 14.5533 211.762 13.74C211.762 12.9133 211.589 12.1933 211.242 11.58C210.909 10.9667 210.442 10.4933 209.842 10.16C209.255 9.81333 208.589 9.64 207.842 9.64C207.109 9.64 206.449 9.81333 205.862 10.16C205.275 10.4933 204.809 10.9667 204.462 11.58C204.115 12.1933 203.942 12.9133 203.942 13.74C203.942 14.5533 204.115 15.2733 204.462 15.9C204.809 16.5133 205.275 16.9933 205.862 17.34C206.449 17.6733 207.109 17.84 207.842 17.84ZM211.802 19V15.84L211.942 13.72L211.742 11.6V4.16H213.162V19H211.802ZM221.457 19.1C220.563 19.1 219.783 18.9333 219.117 18.6C218.45 18.2667 217.93 17.7667 217.557 17.1C217.197 16.4333 217.017 15.6 217.017 14.6V8.5H218.437V14.44C218.437 15.56 218.71 16.4067 219.257 16.98C219.817 17.54 220.597 17.82 221.597 17.82C222.33 17.82 222.963 17.6733 223.497 17.38C224.043 17.0733 224.457 16.6333 224.737 16.06C225.03 15.4867 225.177 14.8 225.177 14V8.5H226.597V19H225.237V16.12L225.457 16.64C225.123 17.4133 224.603 18.02 223.897 18.46C223.203 18.8867 222.39 19.1 221.457 19.1ZM234.914 19.1C233.874 19.1 232.941 18.8733 232.114 18.42C231.301 17.9533 230.661 17.32 230.194 16.52C229.728 15.7067 229.494 14.78 229.494 13.74C229.494 12.6867 229.728 11.76 230.194 10.96C230.661 10.16 231.301 9.53333 232.114 9.08C232.941 8.62667 233.874 8.4 234.914 8.4C235.808 8.4 236.614 8.57333 237.334 8.92C238.054 9.26667 238.621 9.78667 239.034 10.48L237.974 11.2C237.614 10.6667 237.168 10.2733 236.634 10.02C236.101 9.76667 235.521 9.64 234.894 9.64C234.148 9.64 233.474 9.81333 232.874 10.16C232.274 10.4933 231.801 10.9667 231.454 11.58C231.108 12.1933 230.934 12.9133 230.934 13.74C230.934 14.5667 231.108 15.2867 231.454 15.9C231.801 16.5133 232.274 16.9933 232.874 17.34C233.474 17.6733 234.148 17.84 234.894 17.84C235.521 17.84 236.101 17.7133 236.634 17.46C237.168 17.2067 237.614 16.82 237.974 16.3L239.034 17.02C238.621 17.7 238.054 18.22 237.334 18.58C236.614 18.9267 235.808 19.1 234.914 19.1ZM245.261 19.1C244.274 19.1 243.514 18.8333 242.981 18.3C242.448 17.7667 242.181 17.0133 242.181 16.04V6.18H243.601V15.96C243.601 16.5733 243.754 17.0467 244.061 17.38C244.381 17.7133 244.834 17.88 245.421 17.88C246.048 17.88 246.568 17.7 246.981 17.34L247.481 18.36C247.201 18.6133 246.861 18.8 246.461 18.92C246.074 19.04 245.674 19.1 245.261 19.1ZM240.301 9.68V8.5H246.801V9.68H240.301ZM250.066 19V8.5H251.486V19H250.066ZM250.786 6.18C250.493 6.18 250.246 6.08 250.046 5.88C249.846 5.68 249.746 5.44 249.746 5.16C249.746 4.88 249.846 4.64667 250.046 4.46C250.246 4.26 250.493 4.16 250.786 4.16C251.079 4.16 251.326 4.25333 251.526 4.44C251.726 4.62667 251.826 4.86 251.826 5.14C251.826 5.43333 251.726 5.68 251.526 5.88C251.339 6.08 251.093 6.18 250.786 6.18ZM258.137 19L253.477 8.5H254.957L259.237 18.24H258.537L262.877 8.5H264.277L259.597 19H258.137ZM266.277 19V8.5H267.697V19H266.277ZM266.997 6.18C266.704 6.18 266.457 6.08 266.257 5.88C266.057 5.68 265.957 5.44 265.957 5.16C265.957 4.88 266.057 4.64667 266.257 4.46C266.457 4.26 266.704 4.16 266.997 4.16C267.29 4.16 267.537 4.25333 267.737 4.44C267.937 4.62667 268.037 4.86 268.037 5.14C268.037 5.43333 267.937 5.68 267.737 5.88C267.55 6.08 267.304 6.18 266.997 6.18ZM274.968 19.1C273.981 19.1 273.221 18.8333 272.688 18.3C272.155 17.7667 271.888 17.0133 271.888 16.04V6.18H273.308V15.96C273.308 16.5733 273.461 17.0467 273.768 17.38C274.088 17.7133 274.541 17.88 275.128 17.88C275.755 17.88 276.275 17.7 276.688 17.34L277.188 18.36C276.908 18.6133 276.568 18.8 276.168 18.92C275.781 19.04 275.381 19.1 274.968 19.1ZM270.008 9.68V8.5H276.508V9.68H270.008ZM283.862 19.1C282.769 19.1 281.809 18.8733 280.982 18.42C280.155 17.9533 279.509 17.32 279.042 16.52C278.575 15.7067 278.342 14.78 278.342 13.74C278.342 12.7 278.562 11.78 279.002 10.98C279.455 10.18 280.069 9.55333 280.842 9.1C281.629 8.63333 282.509 8.4 283.482 8.4C284.469 8.4 285.342 8.62667 286.102 9.08C286.875 9.52 287.482 10.1467 287.922 10.96C288.362 11.76 288.582 12.6867 288.582 13.74C288.582 13.8067 288.575 13.88 288.562 13.96C288.562 14.0267 288.562 14.1 288.562 14.18H279.422V13.12H287.802L287.242 13.54C287.242 12.78 287.075 12.1067 286.742 11.52C286.422 10.92 285.982 10.4533 285.422 10.12C284.862 9.78667 284.215 9.62 283.482 9.62C282.762 9.62 282.115 9.78667 281.542 10.12C280.969 10.4533 280.522 10.92 280.202 11.52C279.882 12.12 279.722 12.8067 279.722 13.58V13.8C279.722 14.6 279.895 15.3067 280.242 15.92C280.602 16.52 281.095 16.9933 281.722 17.34C282.362 17.6733 283.089 17.84 283.902 17.84C284.542 17.84 285.135 17.7267 285.682 17.5C286.242 17.2733 286.722 16.9267 287.122 16.46L287.922 17.38C287.455 17.94 286.869 18.3667 286.162 18.66C285.469 18.9533 284.702 19.1 283.862 19.1ZM282.162 6.86L284.902 4.38H286.802L283.562 6.86H282.162Z" fill="#292D32"/>
<rect x="35" y="60" width="2" height="141" fill="#D9D9D9"/>
<rect x="411" y="199" width="2" height="381" transform="rotate(90 411 199)" fill="#D9D9D9"/>
<path d="M20.9988 202.06C20.3588 202.06 19.7908 201.888 19.2948 201.544C18.7988 201.2 18.4108 200.712 18.1308 200.08C17.8508 199.44 17.7108 198.68 17.7108 197.8C17.7108 196.92 17.8508 196.164 18.1308 195.532C18.4108 194.892 18.7988 194.4 19.2948 194.056C19.7908 193.712 20.3588 193.54 20.9988 193.54C21.6468 193.54 22.2148 193.712 22.7028 194.056C23.1988 194.4 23.5868 194.892 23.8668 195.532C24.1468 196.164 24.2868 196.92 24.2868 197.8C24.2868 198.68 24.1468 199.44 23.8668 200.08C23.5868 200.712 23.1988 201.2 22.7028 201.544C22.2148 201.888 21.6468 202.06 20.9988 202.06ZM20.9988 201.496C21.5348 201.496 22.0028 201.352 22.4028 201.064C22.8028 200.768 23.1148 200.344 23.3388 199.792C23.5628 199.24 23.6748 198.576 23.6748 197.8C23.6748 197.016 23.5628 196.352 23.3388 195.808C23.1148 195.256 22.8028 194.836 22.4028 194.548C22.0028 194.252 21.5348 194.104 20.9988 194.104C20.4708 194.104 20.0028 194.252 19.5948 194.548C19.1948 194.836 18.8828 195.256 18.6588 195.808C18.4348 196.352 18.3228 197.016 18.3228 197.8C18.3228 198.576 18.4348 199.24 18.6588 199.792C18.8828 200.344 19.1948 200.768 19.5948 201.064C20.0028 201.352 20.4708 201.496 20.9988 201.496Z" fill="#292D32"/>
<path d="M17.5902 167.672V167.228L22.1502 161.6H22.8342L18.2862 167.228L17.9502 167.132H24.7422V167.672H17.5902ZM22.3782 170V167.672L22.3902 167.132V165.08H22.9782V170H22.3782Z" fill="#292D32"/>
<path d="M20.989 136.06C20.325 136.06 19.757 135.964 19.285 135.772C18.813 135.58 18.449 135.308 18.193 134.956C17.945 134.604 17.821 134.184 17.821 133.696C17.821 133.224 17.945 132.82 18.193 132.484C18.441 132.148 18.801 131.892 19.273 131.716C19.745 131.532 20.317 131.44 20.989 131.44C21.661 131.44 22.233 131.532 22.705 131.716C23.185 131.892 23.549 132.148 23.797 132.484C24.053 132.82 24.181 133.224 24.181 133.696C24.181 134.184 24.053 134.604 23.797 134.956C23.541 135.308 23.173 135.58 22.693 135.772C22.221 135.964 21.653 136.06 20.989 136.06ZM20.989 135.532C21.797 135.532 22.429 135.368 22.885 135.04C23.341 134.712 23.569 134.264 23.569 133.696C23.569 133.136 23.341 132.692 22.885 132.364C22.429 132.036 21.797 131.872 20.989 131.872C20.181 131.872 19.553 132.036 19.105 132.364C18.657 132.692 18.433 133.136 18.433 133.696C18.433 134.264 18.657 134.712 19.105 135.04C19.553 135.368 20.181 135.532 20.989 135.532ZM20.989 131.788C20.381 131.788 19.861 131.708 19.429 131.548C19.005 131.38 18.681 131.14 18.457 130.828C18.233 130.516 18.121 130.144 18.121 129.712C18.121 129.264 18.237 128.88 18.469 128.56C18.709 128.232 19.045 127.98 19.477 127.804C19.909 127.628 20.413 127.54 20.989 127.54C21.573 127.54 22.081 127.628 22.513 127.804C22.945 127.98 23.281 128.232 23.521 128.56C23.761 128.88 23.881 129.264 23.881 129.712C23.881 130.144 23.765 130.516 23.533 130.828C23.309 131.14 22.981 131.38 22.549 131.548C22.117 131.708 21.597 131.788 20.989 131.788ZM20.989 131.368C21.709 131.368 22.269 131.22 22.669 130.924C23.069 130.628 23.269 130.232 23.269 129.736C23.269 129.216 23.061 128.808 22.645 128.512C22.237 128.216 21.685 128.068 20.989 128.068C20.301 128.068 19.753 128.216 19.345 128.512C18.937 128.808 18.733 129.212 18.733 129.724C18.733 130.228 18.929 130.628 19.321 130.924C19.721 131.22 20.277 131.368 20.989 131.368Z" fill="#292D32"/>
<path d="M17.1639 102V93.864L17.4399 94.152H15.1119V93.6H17.7759V102H17.1639ZM19.7264 102V101.568L23.2784 98.04C23.6144 97.704 23.8664 97.412 24.0344 97.164C24.2024 96.908 24.3144 96.672 24.3704 96.456C24.4344 96.24 24.4664 96.028 24.4664 95.82C24.4664 95.292 24.2864 94.876 23.9264 94.572C23.5664 94.26 23.0384 94.104 22.3424 94.104C21.8144 94.104 21.3504 94.184 20.9504 94.344C20.5584 94.504 20.2184 94.748 19.9304 95.076L19.4984 94.692C19.8184 94.324 20.2224 94.04 20.7104 93.84C21.2064 93.64 21.7664 93.54 22.3904 93.54C22.9424 93.54 23.4184 93.632 23.8184 93.816C24.2264 93.992 24.5384 94.248 24.7544 94.584C24.9784 94.912 25.0904 95.304 25.0904 95.76C25.0904 96.032 25.0504 96.3 24.9704 96.564C24.8984 96.82 24.7624 97.092 24.5624 97.38C24.3704 97.668 24.0904 97.996 23.7224 98.364L20.3864 101.688L20.1824 101.448H25.4984V102H19.7264Z" fill="#292D32"/>
<path d="M16.9354 65V56.864L17.2114 57.152H14.8834V56.6H17.5474V65H16.9354ZM23.0379 65.06C22.3019 65.06 21.6819 64.892 21.1779 64.556C20.6819 64.22 20.3059 63.736 20.0499 63.104C19.7939 62.472 19.6659 61.72 19.6659 60.848C19.6659 59.896 19.8219 59.104 20.1339 58.472C20.4459 57.832 20.8819 57.352 21.4419 57.032C22.0019 56.704 22.6539 56.54 23.3979 56.54C23.7579 56.54 24.1019 56.572 24.4299 56.636C24.7579 56.7 25.0499 56.812 25.3059 56.972L25.0539 57.464C24.8379 57.328 24.5859 57.232 24.2979 57.176C24.0179 57.112 23.7179 57.08 23.3979 57.08C22.4539 57.08 21.6979 57.388 21.1299 58.004C20.5619 58.612 20.2779 59.528 20.2779 60.752C20.2779 60.936 20.2899 61.172 20.3139 61.46C20.3379 61.74 20.3899 62.016 20.4699 62.288L20.2539 62.228C20.3099 61.764 20.4659 61.368 20.7219 61.04C20.9779 60.712 21.3059 60.464 21.7059 60.296C22.1059 60.12 22.5459 60.032 23.0259 60.032C23.5859 60.032 24.0739 60.136 24.4899 60.344C24.9139 60.544 25.2419 60.832 25.4739 61.208C25.7139 61.584 25.8339 62.024 25.8339 62.528C25.8339 63.04 25.7099 63.488 25.4619 63.872C25.2219 64.248 24.8899 64.54 24.4659 64.748C24.0499 64.956 23.5739 65.06 23.0379 65.06ZM23.0139 64.532C23.4539 64.532 23.8379 64.452 24.1659 64.292C24.4939 64.124 24.7499 63.892 24.9339 63.596C25.1259 63.292 25.2219 62.94 25.2219 62.54C25.2219 61.94 25.0179 61.46 24.6099 61.1C24.2099 60.74 23.6539 60.56 22.9419 60.56C22.4859 60.56 22.0819 60.648 21.7299 60.824C21.3779 61 21.1019 61.24 20.9019 61.544C20.7099 61.848 20.6139 62.188 20.6139 62.564C20.6139 62.892 20.7059 63.208 20.8899 63.512C21.0739 63.808 21.3419 64.052 21.6939 64.244C22.0539 64.436 22.4939 64.532 23.0139 64.532Z" fill="#292D32"/>
<path d="M88.1031 148.264C64.6924 121.394 44.5649 137.545 36 148.264V199.003H410V108.96C404.861 98.6693 385.495 113.248 376.454 121.823C354.756 138.974 341.243 123.253 337.198 113.248C319.498 79.5177 304.366 74.6585 300.084 74.6585C272.962 68.2269 252.106 110.441 241.637 134.5C225 161.5 200.24 125.925 182.397 108.773C153.276 86.4772 132 124.503 120.221 148.264C108 165.003 93 155.003 88.1031 148.264Z" fill="url(#paint0_linear_2736_3365)"/>
<path d="M35.7266 148.045C35.677 148.107 35.65 148.184 35.65 148.264V199.003C35.65 199.196 35.8067 199.353 36 199.353H410C410.193 199.353 410.35 199.196 410.35 199.003V108.96C410.35 108.906 410.337 108.852 410.313 108.804C409.642 107.46 408.73 106.507 407.622 105.899C406.517 105.294 405.24 105.045 403.855 105.073C401.095 105.128 397.852 106.283 394.529 108.006C387.88 111.455 380.757 117.261 376.225 121.559C365.459 130.063 356.799 130.369 350.353 127.401C343.866 124.414 339.526 118.07 337.523 113.117C337.519 113.106 337.514 113.095 337.508 113.085C319.844 79.424 304.661 74.3394 300.125 74.3086C286.362 71.0676 274.255 80.1699 264.339 92.9305C254.404 105.717 246.562 122.307 241.326 134.338C237.21 141.007 232.641 143.745 227.858 143.933C223.038 144.122 217.906 141.728 212.676 137.911C207.453 134.099 202.183 128.907 197.094 123.584C195.473 121.888 193.869 120.177 192.291 118.494C188.926 114.906 185.681 111.445 182.639 108.521C182.63 108.512 182.62 108.504 182.61 108.496C175.271 102.877 168.391 101.034 162.009 101.849C155.637 102.662 149.814 106.117 144.568 110.991C134.091 120.722 125.807 136.209 119.921 148.081C116.901 152.21 113.727 154.67 110.603 155.949C107.474 157.23 104.373 157.338 101.488 156.725C95.7024 155.497 90.7968 151.375 88.3862 148.058C88.3801 148.05 88.3737 148.041 88.3669 148.034C76.5993 134.527 65.5917 131.773 56.408 133.826C47.2647 135.871 40.0287 142.661 35.7266 148.045Z" stroke="#A41B34" stroke-opacity="0.89" stroke-width="0.7" stroke-linejoin="round"/>
<path d="M44.3295 211.385C43.9115 211.385 43.5191 211.29 43.1525 211.099C42.7931 210.901 42.5035 210.63 42.2835 210.285L42.6245 209.911C42.8371 210.226 43.0865 210.468 43.3725 210.637C43.6658 210.798 43.9848 210.879 44.3295 210.879C45.3488 210.879 45.8585 210.274 45.8585 209.064V204.136H43.0205V203.63H46.4195V209.064C46.4195 209.834 46.2435 210.413 45.8915 210.802C45.5395 211.191 45.0188 211.385 44.3295 211.385ZM52.4828 211.33V210.021L52.4608 209.823V207.667C52.4608 207.132 52.3141 206.725 52.0208 206.446C51.7348 206.167 51.3131 206.028 50.7558 206.028C50.3598 206.028 49.9895 206.098 49.6448 206.237C49.3075 206.369 49.0178 206.541 48.7758 206.754L48.5008 206.358C48.7868 206.101 49.1315 205.903 49.5348 205.764C49.9381 205.617 50.3598 205.544 50.7998 205.544C51.5111 205.544 52.0575 205.724 52.4388 206.083C52.8201 206.442 53.0108 206.978 53.0108 207.689V211.33H52.4828ZM50.4148 211.374C49.9895 211.374 49.6191 211.308 49.3038 211.176C48.9958 211.037 48.7575 210.842 48.5888 210.593C48.4275 210.344 48.3468 210.058 48.3468 209.735C48.3468 209.442 48.4128 209.178 48.5448 208.943C48.6841 208.701 48.9115 208.507 49.2268 208.36C49.5421 208.206 49.9638 208.129 50.4918 208.129H52.6038V208.558H50.5028C49.9088 208.558 49.4908 208.668 49.2488 208.888C49.0141 209.108 48.8968 209.383 48.8968 209.713C48.8968 210.08 49.0361 210.373 49.3148 210.593C49.5935 210.813 49.9858 210.923 50.4918 210.923C50.9758 210.923 51.3828 210.813 51.7128 210.593C52.0501 210.373 52.2995 210.054 52.4608 209.636L52.6148 210.01C52.4608 210.428 52.1968 210.762 51.8228 211.011C51.4561 211.253 50.9868 211.374 50.4148 211.374ZM58.0819 205.544C58.5512 205.544 58.9582 205.636 59.3029 205.819C59.6549 205.995 59.9262 206.266 60.1169 206.633C60.3149 206.992 60.4139 207.44 60.4139 207.975V211.33H59.8639V208.019C59.8639 207.374 59.6989 206.882 59.3689 206.545C59.0462 206.208 58.5915 206.039 58.0049 206.039C57.5575 206.039 57.1689 206.131 56.8389 206.314C56.5089 206.497 56.2559 206.754 56.0799 207.084C55.9112 207.414 55.8269 207.81 55.8269 208.272V211.33H55.2769V205.588H55.8049V207.183L55.7279 207.007C55.9039 206.552 56.1935 206.197 56.5969 205.94C57.0002 205.676 57.4952 205.544 58.0819 205.544Z" fill="#292D32"/>
<path d="M87.1422 207.425H91.3112V207.931H87.1422V207.425ZM87.2082 211.33H86.6472V203.63H91.7952V204.136H87.2082V211.33ZM95.5386 211.374C94.9592 211.374 94.4459 211.249 93.9986 211C93.5586 210.751 93.2102 210.406 92.9536 209.966C92.7042 209.526 92.5796 209.024 92.5796 208.459C92.5796 207.887 92.6969 207.385 92.9316 206.952C93.1736 206.512 93.5036 206.167 93.9216 205.918C94.3396 205.669 94.8089 205.544 95.3296 205.544C95.8502 205.544 96.3159 205.665 96.7266 205.907C97.1446 206.149 97.4709 206.49 97.7056 206.93C97.9476 207.363 98.0686 207.865 98.0686 208.437C98.0686 208.459 98.0649 208.485 98.0576 208.514C98.0576 208.536 98.0576 208.562 98.0576 208.591H92.9866V208.162H97.7606L97.5406 208.371C97.5479 207.924 97.4526 207.524 97.2546 207.172C97.0639 206.813 96.8036 206.534 96.4736 206.336C96.1436 206.131 95.7622 206.028 95.3296 206.028C94.9042 206.028 94.5229 206.131 94.1856 206.336C93.8556 206.534 93.5952 206.813 93.4046 207.172C93.2139 207.524 93.1186 207.927 93.1186 208.382V208.481C93.1186 208.95 93.2212 209.368 93.4266 209.735C93.6392 210.094 93.9289 210.377 94.2956 210.582C94.6622 210.78 95.0802 210.879 95.5496 210.879C95.9162 210.879 96.2572 210.813 96.5726 210.681C96.8952 210.549 97.1666 210.347 97.3866 210.076L97.7056 210.439C97.4562 210.747 97.1409 210.982 96.7596 211.143C96.3856 211.297 95.9786 211.374 95.5386 211.374ZM101.115 211.33L98.5296 205.588H99.1126L101.533 211.022H101.269L103.711 205.588H104.272L101.676 211.33H101.115Z" fill="#292D32"/>
<path d="M129.853 211.33V203.63H130.326L133.901 209.801H133.648L137.212 203.63H137.674L137.685 211.33H137.135L137.124 204.477H137.278L133.901 210.307H133.626L130.238 204.477H130.403V211.33H129.853ZM143.812 211.33V210.021L143.79 209.823V207.667C143.79 207.132 143.644 206.725 143.35 206.446C143.064 206.167 142.643 206.028 142.085 206.028C141.689 206.028 141.319 206.098 140.974 206.237C140.637 206.369 140.347 206.541 140.105 206.754L139.83 206.358C140.116 206.101 140.461 205.903 140.864 205.764C141.268 205.617 141.689 205.544 142.129 205.544C142.841 205.544 143.387 205.724 143.768 206.083C144.15 206.442 144.34 206.978 144.34 207.689V211.33H143.812ZM141.744 211.374C141.319 211.374 140.949 211.308 140.633 211.176C140.325 211.037 140.087 210.842 139.918 210.593C139.757 210.344 139.676 210.058 139.676 209.735C139.676 209.442 139.742 209.178 139.874 208.943C140.014 208.701 140.241 208.507 140.556 208.36C140.872 208.206 141.293 208.129 141.821 208.129H143.933V208.558H141.832C141.238 208.558 140.82 208.668 140.578 208.888C140.344 209.108 140.226 209.383 140.226 209.713C140.226 210.08 140.366 210.373 140.644 210.593C140.923 210.813 141.315 210.923 141.821 210.923C142.305 210.923 142.712 210.813 143.042 210.593C143.38 210.373 143.629 210.054 143.79 209.636L143.944 210.01C143.79 210.428 143.526 210.762 143.152 211.011C142.786 211.253 142.316 211.374 141.744 211.374ZM146.606 211.33V205.588H147.134V207.161L147.079 206.985C147.241 206.523 147.512 206.167 147.893 205.918C148.275 205.669 148.751 205.544 149.323 205.544V206.083C149.301 206.083 149.279 206.083 149.257 206.083C149.235 206.076 149.213 206.072 149.191 206.072C148.553 206.072 148.055 206.274 147.695 206.677C147.336 207.073 147.156 207.627 147.156 208.338V211.33H146.606Z" fill="#292D32"/>
<path d="M174.01 211.33L177.552 203.63H178.113L181.655 211.33H181.05L177.706 203.982H177.948L174.615 211.33H174.01ZM175.308 209.163L175.495 208.69H180.104L180.291 209.163H175.308ZM184.039 211.33L181.454 205.588H182.037L184.457 211.022H184.193L186.635 205.588H187.196L184.6 211.33H184.039ZM188.399 211.33V205.588H188.927V207.161L188.872 206.985C189.033 206.523 189.304 206.167 189.686 205.918C190.067 205.669 190.544 205.544 191.116 205.544V206.083C191.094 206.083 191.072 206.083 191.05 206.083C191.028 206.076 191.006 206.072 190.984 206.072C190.346 206.072 189.847 206.274 189.488 206.677C189.128 207.073 188.949 207.627 188.949 208.338V211.33H188.399Z" fill="#292D32"/>
<path d="M217.105 211.33V203.63H217.578L221.153 209.801H220.9L224.464 203.63H224.926L224.937 211.33H224.387L224.376 204.477H224.53L221.153 210.307H220.878L217.49 204.477H217.655V211.33H217.105ZM231.065 211.33V210.021L231.043 209.823V207.667C231.043 207.132 230.896 206.725 230.603 206.446C230.317 206.167 229.895 206.028 229.338 206.028C228.942 206.028 228.572 206.098 228.227 206.237C227.89 206.369 227.6 206.541 227.358 206.754L227.083 206.358C227.369 206.101 227.714 205.903 228.117 205.764C228.52 205.617 228.942 205.544 229.382 205.544C230.093 205.544 230.64 205.724 231.021 206.083C231.402 206.442 231.593 206.978 231.593 207.689V211.33H231.065ZM228.997 211.374C228.572 211.374 228.201 211.308 227.886 211.176C227.578 211.037 227.34 210.842 227.171 210.593C227.01 210.344 226.929 210.058 226.929 209.735C226.929 209.442 226.995 209.178 227.127 208.943C227.266 208.701 227.494 208.507 227.809 208.36C228.124 208.206 228.546 208.129 229.074 208.129H231.186V208.558H229.085C228.491 208.558 228.073 208.668 227.831 208.888C227.596 209.108 227.479 209.383 227.479 209.713C227.479 210.08 227.618 210.373 227.897 210.593C228.176 210.813 228.568 210.923 229.074 210.923C229.558 210.923 229.965 210.813 230.295 210.593C230.632 210.373 230.882 210.054 231.043 209.636L231.197 210.01C231.043 210.428 230.779 210.762 230.405 211.011C230.038 211.253 229.569 211.374 228.997 211.374ZM233.859 211.33V205.588H234.409V211.33H233.859ZM234.134 204.191C234.009 204.191 233.903 204.147 233.815 204.059C233.727 203.971 233.683 203.868 233.683 203.751C233.683 203.626 233.727 203.52 233.815 203.432C233.903 203.344 234.009 203.3 234.134 203.3C234.266 203.3 234.372 203.344 234.453 203.432C234.541 203.513 234.585 203.615 234.585 203.74C234.585 203.865 234.541 203.971 234.453 204.059C234.372 204.147 234.266 204.191 234.134 204.191Z" fill="#292D32"/>
<path d="M260.066 213.508C259.839 213.508 259.619 213.475 259.406 213.409C259.193 213.35 259.017 213.255 258.878 213.123L259.098 212.716C259.34 212.929 259.652 213.035 260.033 213.035C260.363 213.035 260.616 212.936 260.792 212.738C260.975 212.54 261.067 212.254 261.067 211.88V205.588H261.617V211.902C261.617 212.386 261.481 212.775 261.21 213.068C260.946 213.361 260.565 213.508 260.066 213.508ZM261.342 204.191C261.217 204.191 261.111 204.147 261.023 204.059C260.935 203.971 260.891 203.868 260.891 203.751C260.891 203.626 260.935 203.52 261.023 203.432C261.111 203.344 261.217 203.3 261.342 203.3C261.474 203.3 261.58 203.344 261.661 203.432C261.749 203.513 261.793 203.615 261.793 203.74C261.793 203.865 261.749 203.971 261.661 204.059C261.58 204.147 261.474 204.191 261.342 204.191ZM266.266 211.374C265.774 211.374 265.349 211.286 264.99 211.11C264.63 210.927 264.352 210.655 264.154 210.296C263.963 209.929 263.868 209.478 263.868 208.943V205.588H264.418V208.899C264.418 209.544 264.583 210.036 264.913 210.373C265.243 210.71 265.708 210.879 266.31 210.879C266.742 210.879 267.116 210.787 267.432 210.604C267.747 210.421 267.989 210.164 268.158 209.834C268.326 209.497 268.411 209.101 268.411 208.646V205.588H268.961V211.33H268.433V209.735L268.51 209.922C268.341 210.369 268.059 210.725 267.663 210.989C267.274 211.246 266.808 211.374 266.266 211.374ZM271.292 211.33V205.588H271.842V211.33H271.292ZM271.567 204.191C271.442 204.191 271.336 204.147 271.248 204.059C271.16 203.971 271.116 203.868 271.116 203.751C271.116 203.626 271.16 203.52 271.248 203.432C271.336 203.344 271.442 203.3 271.567 203.3C271.699 203.3 271.805 203.344 271.886 203.432C271.974 203.513 272.018 203.615 272.018 203.74C272.018 203.865 271.974 203.971 271.886 204.059C271.805 204.147 271.699 204.191 271.567 204.191Z" fill="#292D32"/>
<path d="M299.248 211.385C298.83 211.385 298.438 211.29 298.071 211.099C297.712 210.901 297.422 210.63 297.202 210.285L297.543 209.911C297.756 210.226 298.005 210.468 298.291 210.637C298.584 210.798 298.903 210.879 299.248 210.879C300.267 210.879 300.777 210.274 300.777 209.064V204.136H297.939V203.63H301.338V209.064C301.338 209.834 301.162 210.413 300.81 210.802C300.458 211.191 299.937 211.385 299.248 211.385ZM306.114 211.374C305.623 211.374 305.198 211.286 304.838 211.11C304.479 210.927 304.2 210.655 304.002 210.296C303.812 209.929 303.716 209.478 303.716 208.943V205.588H304.266V208.899C304.266 209.544 304.431 210.036 304.761 210.373C305.091 210.71 305.557 210.879 306.158 210.879C306.591 210.879 306.965 210.787 307.28 210.604C307.596 210.421 307.838 210.164 308.006 209.834C308.175 209.497 308.259 209.101 308.259 208.646V205.588H308.809V211.33H308.281V209.735L308.358 209.922C308.19 210.369 307.907 210.725 307.511 210.989C307.123 211.246 306.657 211.374 306.114 211.374ZM311.141 211.33V205.588H311.691V211.33H311.141ZM311.416 204.191C311.291 204.191 311.185 204.147 311.097 204.059C311.009 203.971 310.965 203.868 310.965 203.751C310.965 203.626 311.009 203.52 311.097 203.432C311.185 203.344 311.291 203.3 311.416 203.3C311.548 203.3 311.654 203.344 311.735 203.432C311.823 203.513 311.867 203.615 311.867 203.74C311.867 203.865 311.823 203.971 311.735 204.059C311.654 204.147 311.548 204.191 311.416 204.191ZM314.009 211.33V203.168H314.559V211.33H314.009Z" fill="#292D32"/>
<path d="M339.911 211.33L343.453 203.63H344.014L347.556 211.33H346.951L343.607 203.982H343.849L340.516 211.33H339.911ZM341.209 209.163L341.396 208.69H346.005L346.192 209.163H341.209ZM350.969 211.374C350.419 211.374 349.927 211.249 349.495 211C349.069 210.751 348.728 210.406 348.472 209.966C348.222 209.526 348.098 209.024 348.098 208.459C348.098 207.887 348.222 207.385 348.472 206.952C348.728 206.512 349.069 206.167 349.495 205.918C349.927 205.669 350.419 205.544 350.969 205.544C351.519 205.544 352.01 205.669 352.443 205.918C352.875 206.167 353.216 206.512 353.466 206.952C353.715 207.385 353.84 207.887 353.84 208.459C353.84 209.024 353.715 209.526 353.466 209.966C353.216 210.406 352.875 210.751 352.443 211C352.01 211.249 351.519 211.374 350.969 211.374ZM350.969 210.879C351.409 210.879 351.805 210.78 352.157 210.582C352.509 210.377 352.784 210.091 352.982 209.724C353.18 209.357 353.279 208.936 353.279 208.459C353.279 207.975 353.18 207.553 352.982 207.194C352.784 206.827 352.509 206.545 352.157 206.347C351.805 206.142 351.409 206.039 350.969 206.039C350.529 206.039 350.133 206.142 349.781 206.347C349.436 206.545 349.161 206.827 348.956 207.194C348.758 207.553 348.659 207.975 348.659 208.459C348.659 208.936 348.758 209.357 348.956 209.724C349.161 210.091 349.436 210.377 349.781 210.582C350.133 210.78 350.529 210.879 350.969 210.879ZM357.878 211.374C357.387 211.374 356.961 211.286 356.602 211.11C356.243 210.927 355.964 210.655 355.766 210.296C355.575 209.929 355.48 209.478 355.48 208.943V205.588H356.03V208.899C356.03 209.544 356.195 210.036 356.525 210.373C356.855 210.71 357.321 210.879 357.922 210.879C358.355 210.879 358.729 210.787 359.044 210.604C359.359 210.421 359.601 210.164 359.77 209.834C359.939 209.497 360.023 209.101 360.023 208.646V205.588H360.573V211.33H360.045V209.735L360.122 209.922C359.953 210.369 359.671 210.725 359.275 210.989C358.886 211.246 358.421 211.374 357.878 211.374Z" fill="#292D32"/>
<path d="M389.58 211.385C389.008 211.385 388.466 211.29 387.952 211.099C387.446 210.901 387.054 210.648 386.775 210.34L387.028 209.922C387.292 210.193 387.652 210.424 388.106 210.615C388.568 210.798 389.056 210.89 389.569 210.89C390.083 210.89 390.501 210.824 390.823 210.692C391.153 210.553 391.395 210.369 391.549 210.142C391.711 209.915 391.791 209.662 391.791 209.383C391.791 209.053 391.703 208.789 391.527 208.591C391.351 208.393 391.12 208.235 390.834 208.118C390.548 208.001 390.237 207.902 389.899 207.821C389.562 207.74 389.221 207.656 388.876 207.568C388.532 207.473 388.216 207.352 387.93 207.205C387.644 207.058 387.413 206.86 387.237 206.611C387.069 206.354 386.984 206.024 386.984 205.621C386.984 205.254 387.08 204.917 387.27 204.609C387.461 204.301 387.758 204.052 388.161 203.861C388.565 203.67 389.082 203.575 389.712 203.575C390.138 203.575 390.556 203.637 390.966 203.762C391.384 203.887 391.74 204.055 392.033 204.268L391.824 204.719C391.502 204.499 391.153 204.338 390.779 204.235C390.413 204.125 390.057 204.07 389.712 204.07C389.221 204.07 388.814 204.14 388.491 204.279C388.169 204.418 387.93 204.605 387.776 204.84C387.622 205.067 387.545 205.324 387.545 205.61C387.545 205.94 387.63 206.204 387.798 206.402C387.974 206.6 388.205 206.758 388.491 206.875C388.777 206.992 389.093 207.091 389.437 207.172C389.782 207.253 390.123 207.341 390.46 207.436C390.798 207.524 391.109 207.641 391.395 207.788C391.681 207.935 391.912 208.133 392.088 208.382C392.264 208.631 392.352 208.954 392.352 209.35C392.352 209.709 392.253 210.047 392.055 210.362C391.857 210.67 391.553 210.919 391.142 211.11C390.739 211.293 390.218 211.385 389.58 211.385ZM396.415 211.374C395.836 211.374 395.323 211.249 394.875 211C394.435 210.751 394.087 210.406 393.83 209.966C393.581 209.526 393.456 209.024 393.456 208.459C393.456 207.887 393.574 207.385 393.808 206.952C394.05 206.512 394.38 206.167 394.798 205.918C395.216 205.669 395.686 205.544 396.206 205.544C396.727 205.544 397.193 205.665 397.603 205.907C398.021 206.149 398.348 206.49 398.582 206.93C398.824 207.363 398.945 207.865 398.945 208.437C398.945 208.459 398.942 208.485 398.934 208.514C398.934 208.536 398.934 208.562 398.934 208.591H393.863V208.162H398.637L398.417 208.371C398.425 207.924 398.329 207.524 398.131 207.172C397.941 206.813 397.68 206.534 397.35 206.336C397.02 206.131 396.639 206.028 396.206 206.028C395.781 206.028 395.4 206.131 395.062 206.336C394.732 206.534 394.472 206.813 394.281 207.172C394.091 207.524 393.995 207.927 393.995 208.382V208.481C393.995 208.95 394.098 209.368 394.303 209.735C394.516 210.094 394.806 210.377 395.172 210.582C395.539 210.78 395.957 210.879 396.426 210.879C396.793 210.879 397.134 210.813 397.449 210.681C397.772 210.549 398.043 210.347 398.263 210.076L398.582 210.439C398.333 210.747 398.018 210.982 397.636 211.143C397.262 211.297 396.855 211.374 396.415 211.374ZM403.529 211.374C403.023 211.374 402.565 211.257 402.154 211.022C401.751 210.787 401.428 210.454 401.186 210.021C400.951 209.581 400.834 209.06 400.834 208.459C400.834 207.858 400.951 207.341 401.186 206.908C401.428 206.468 401.751 206.131 402.154 205.896C402.565 205.661 403.023 205.544 403.529 205.544C404.072 205.544 404.556 205.669 404.981 205.918C405.414 206.16 405.751 206.501 405.993 206.941C406.242 207.381 406.367 207.887 406.367 208.459C406.367 209.031 406.242 209.537 405.993 209.977C405.751 210.417 405.414 210.762 404.981 211.011C404.556 211.253 404.072 211.374 403.529 211.374ZM400.647 213.464V205.588H401.175V207.469L401.087 208.47L401.197 209.471V213.464H400.647ZM403.496 210.879C403.936 210.879 404.332 210.78 404.684 210.582C405.036 210.377 405.311 210.091 405.509 209.724C405.714 209.357 405.817 208.936 405.817 208.459C405.817 207.975 405.714 207.553 405.509 207.194C405.311 206.827 405.036 206.545 404.684 206.347C404.332 206.142 403.936 206.039 403.496 206.039C403.056 206.039 402.66 206.142 402.308 206.347C401.963 206.545 401.688 206.827 401.483 207.194C401.285 207.553 401.186 207.975 401.186 208.459C401.186 208.936 401.285 209.357 401.483 209.724C401.688 210.091 401.963 210.377 402.308 210.582C402.66 210.78 403.056 210.879 403.496 210.879Z" fill="#292D32"/>
<path d="M17.6327 42.065C16.9567 42.065 16.3284 41.9523 15.7477 41.727C15.1757 41.493 14.6774 41.168 14.2527 40.752C13.8281 40.336 13.4987 39.8507 13.2647 39.296C13.0307 38.7327 12.9137 38.1173 12.9137 37.45C12.9137 36.7827 13.0307 36.1717 13.2647 35.617C13.4987 35.0537 13.8281 34.564 14.2527 34.148C14.6861 33.732 15.1887 33.4113 15.7607 33.186C16.3327 32.952 16.9567 32.835 17.6327 32.835C18.2741 32.835 18.8721 32.939 19.4267 33.147C19.9901 33.355 20.4711 33.6713 20.8697 34.096L20.4537 34.525C20.0637 34.1437 19.6304 33.8707 19.1537 33.706C18.6857 33.5327 18.1874 33.446 17.6587 33.446C17.0781 33.446 16.5364 33.5457 16.0337 33.745C15.5397 33.9443 15.1064 34.226 14.7337 34.59C14.3697 34.954 14.0837 35.3787 13.8757 35.864C13.6764 36.3493 13.5767 36.878 13.5767 37.45C13.5767 38.022 13.6764 38.5507 13.8757 39.036C14.0837 39.5213 14.3697 39.946 14.7337 40.31C15.1064 40.674 15.5397 40.9557 16.0337 41.155C16.5364 41.3543 17.0781 41.454 17.6587 41.454C18.1874 41.454 18.6857 41.3717 19.1537 41.207C19.6304 41.0337 20.0637 40.752 20.4537 40.362L20.8697 40.791C20.4711 41.2157 19.9901 41.5363 19.4267 41.753C18.8721 41.961 18.2741 42.065 17.6327 42.065ZM27.0451 42V40.453L27.0191 40.219V37.671C27.0191 37.0383 26.8458 36.5573 26.4991 36.228C26.1611 35.8987 25.6628 35.734 25.0041 35.734C24.5361 35.734 24.0985 35.8163 23.6911 35.981C23.2925 36.137 22.9501 36.3407 22.6641 36.592L22.3391 36.124C22.6771 35.8207 23.0845 35.5867 23.5611 35.422C24.0378 35.2487 24.5361 35.162 25.0561 35.162C25.8968 35.162 26.5425 35.3743 26.9931 35.799C27.4438 36.2237 27.6691 36.8563 27.6691 37.697V42H27.0451ZM24.6011 42.052C24.0985 42.052 23.6608 41.974 23.2881 41.818C22.9241 41.6533 22.6425 41.4237 22.4431 41.129C22.2525 40.8343 22.1571 40.4963 22.1571 40.115C22.1571 39.7683 22.2351 39.4563 22.3911 39.179C22.5558 38.893 22.8245 38.6633 23.1971 38.49C23.5698 38.308 24.0681 38.217 24.6921 38.217H27.1881V38.724H24.7051C24.0031 38.724 23.5091 38.854 23.2231 39.114C22.9458 39.374 22.8071 39.699 22.8071 40.089C22.8071 40.5223 22.9718 40.869 23.3011 41.129C23.6305 41.389 24.0941 41.519 24.6921 41.519C25.2641 41.519 25.7451 41.389 26.1351 41.129C26.5338 40.869 26.8285 40.492 27.0191 39.998L27.2011 40.44C27.0191 40.934 26.7071 41.3283 26.2651 41.623C25.8318 41.909 25.2771 42.052 24.6011 42.052ZM33.6622 35.162C34.2169 35.162 34.6979 35.2703 35.1052 35.487C35.5212 35.695 35.8419 36.0157 36.0672 36.449C36.3012 36.8737 36.4182 37.4023 36.4182 38.035V42H35.7682V38.087C35.7682 37.3243 35.5732 36.7437 35.1832 36.345C34.8019 35.9463 34.2646 35.747 33.5712 35.747C33.0426 35.747 32.5832 35.8553 32.1932 36.072C31.8032 36.2887 31.5042 36.592 31.2962 36.982C31.0969 37.372 30.9972 37.84 30.9972 38.386V42H30.3472V35.214H30.9712V37.099L30.8802 36.891C31.0882 36.3537 31.4306 35.9333 31.9072 35.63C32.3839 35.318 32.9689 35.162 33.6622 35.162ZM41.7073 42.052C41.0746 42.052 40.5026 41.909 39.9913 41.623C39.4886 41.3283 39.09 40.921 38.7953 40.401C38.5006 39.881 38.3533 39.283 38.3533 38.607C38.3533 37.9223 38.5006 37.3243 38.7953 36.813C39.09 36.293 39.4886 35.89 39.9913 35.604C40.5026 35.3093 41.0746 35.162 41.7073 35.162C42.3053 35.162 42.8426 35.3007 43.3193 35.578C43.8046 35.8553 44.186 36.2497 44.4633 36.761C44.7493 37.2723 44.8923 37.8877 44.8923 38.607C44.8923 39.309 44.7536 39.92 44.4763 40.44C44.199 40.96 43.8176 41.3587 43.3323 41.636C42.8556 41.9133 42.314 42.052 41.7073 42.052ZM41.7463 41.467C42.2663 41.467 42.73 41.35 43.1373 41.116C43.5533 40.8733 43.8783 40.5353 44.1123 40.102C44.355 39.6687 44.4763 39.1703 44.4763 38.607C44.4763 38.035 44.355 37.5367 44.1123 37.112C43.8783 36.6787 43.5533 36.345 43.1373 36.111C42.73 35.8683 42.2663 35.747 41.7463 35.747C41.2263 35.747 40.7583 35.8683 40.3423 36.111C39.935 36.345 39.61 36.6787 39.3673 37.112C39.1333 37.5367 39.0163 38.035 39.0163 38.607C39.0163 39.1703 39.1333 39.6687 39.3673 40.102C39.61 40.5353 39.935 40.8733 40.3423 41.116C40.7583 41.35 41.2263 41.467 41.7463 41.467ZM44.4893 42V39.777L44.6063 38.594L44.4763 37.411V32.354H45.1263V42H44.4893ZM47.8668 42V35.214H48.5168V42H47.8668ZM48.1918 33.563C48.0444 33.563 47.9188 33.511 47.8148 33.407C47.7108 33.303 47.6588 33.1817 47.6588 33.043C47.6588 32.8957 47.7108 32.77 47.8148 32.666C47.9188 32.562 48.0444 32.51 48.1918 32.51C48.3478 32.51 48.4734 32.562 48.5688 32.666C48.6728 32.7613 48.7248 32.8827 48.7248 33.03C48.7248 33.1773 48.6728 33.303 48.5688 33.407C48.4734 33.511 48.3478 33.563 48.1918 33.563ZM53.8694 42.052C53.2368 42.052 52.6648 41.909 52.1534 41.623C51.6508 41.3283 51.2521 40.921 50.9574 40.401C50.6628 39.881 50.5154 39.283 50.5154 38.607C50.5154 37.9223 50.6628 37.3243 50.9574 36.813C51.2521 36.293 51.6508 35.89 52.1534 35.604C52.6648 35.3093 53.2368 35.162 53.8694 35.162C54.4674 35.162 55.0048 35.3007 55.4814 35.578C55.9668 35.8553 56.3481 36.2497 56.6254 36.761C56.9114 37.2723 57.0544 37.8877 57.0544 38.607C57.0544 39.309 56.9158 39.92 56.6384 40.44C56.3611 40.96 55.9798 41.3587 55.4944 41.636C55.0178 41.9133 54.4761 42.052 53.8694 42.052ZM53.9084 41.467C54.4284 41.467 54.8921 41.35 55.2994 41.116C55.7154 40.8733 56.0404 40.5353 56.2744 40.102C56.5171 39.6687 56.6384 39.1703 56.6384 38.607C56.6384 38.035 56.5171 37.5367 56.2744 37.112C56.0404 36.6787 55.7154 36.345 55.2994 36.111C54.8921 35.8683 54.4284 35.747 53.9084 35.747C53.3884 35.747 52.9204 35.8683 52.5044 36.111C52.0971 36.345 51.7721 36.6787 51.5294 37.112C51.2954 37.5367 51.1784 38.035 51.1784 38.607C51.1784 39.1703 51.2954 39.6687 51.5294 40.102C51.7721 40.5353 52.0971 40.8733 52.5044 41.116C52.9204 41.35 53.3884 41.467 53.9084 41.467ZM56.6514 42V39.777L56.7684 38.594L56.6384 37.411V32.354H57.2884V42H56.6514ZM64.3059 42V40.453L64.2799 40.219V37.671C64.2799 37.0383 64.1065 36.5573 63.7599 36.228C63.4219 35.8987 62.9235 35.734 62.2649 35.734C61.7969 35.734 61.3592 35.8163 60.9519 35.981C60.5532 36.137 60.2109 36.3407 59.9249 36.592L59.5999 36.124C59.9379 35.8207 60.3452 35.5867 60.8219 35.422C61.2985 35.2487 61.7969 35.162 62.3169 35.162C63.1575 35.162 63.8032 35.3743 64.2539 35.799C64.7045 36.2237 64.9299 36.8563 64.9299 37.697V42H64.3059ZM61.8619 42.052C61.3592 42.052 60.9215 41.974 60.5489 41.818C60.1849 41.6533 59.9032 41.4237 59.7039 41.129C59.5132 40.8343 59.4179 40.4963 59.4179 40.115C59.4179 39.7683 59.4959 39.4563 59.6519 39.179C59.8165 38.893 60.0852 38.6633 60.4579 38.49C60.8305 38.308 61.3289 38.217 61.9529 38.217H64.4489V38.724H61.9659C61.2639 38.724 60.7699 38.854 60.4839 39.114C60.2065 39.374 60.0679 39.699 60.0679 40.089C60.0679 40.5223 60.2325 40.869 60.5619 41.129C60.8912 41.389 61.3549 41.519 61.9529 41.519C62.5249 41.519 63.0059 41.389 63.3959 41.129C63.7945 40.869 64.0892 40.492 64.2799 39.998L64.4619 40.44C64.2799 40.934 63.9679 41.3283 63.5259 41.623C63.0925 41.909 62.5379 42.052 61.8619 42.052ZM69.584 42.052C68.986 42.052 68.5266 41.8873 68.206 41.558C67.894 41.2287 67.738 40.778 67.738 40.206V33.732H68.388V40.141C68.388 40.5743 68.4963 40.908 68.713 41.142C68.9296 41.376 69.2416 41.493 69.649 41.493C70.0736 41.493 70.4246 41.3673 70.702 41.116L70.975 41.571C70.8016 41.7357 70.5893 41.857 70.338 41.935C70.0953 42.013 69.844 42.052 69.584 42.052ZM66.49 35.773V35.214H70.546V35.773H66.49ZM75.5437 42.052C74.963 42.052 74.4603 41.948 74.0357 41.74C73.611 41.5233 73.2817 41.2027 73.0477 40.778C72.8223 40.3447 72.7097 39.8117 72.7097 39.179V35.214H73.3597V39.127C73.3597 39.8897 73.5547 40.4703 73.9447 40.869C74.3347 41.2677 74.885 41.467 75.5957 41.467C76.107 41.467 76.549 41.3587 76.9217 41.142C77.2943 40.9253 77.5803 40.622 77.7797 40.232C77.979 39.8333 78.0787 39.3653 78.0787 38.828V35.214H78.7287V42H78.1047V40.115L78.1957 40.336C77.9963 40.8647 77.6627 41.285 77.1947 41.597C76.7353 41.9003 76.185 42.052 75.5437 42.052ZM81.484 42V35.214H82.108V37.073L82.043 36.865C82.2336 36.319 82.5543 35.8987 83.005 35.604C83.4556 35.3093 84.019 35.162 84.695 35.162V35.799C84.669 35.799 84.643 35.799 84.617 35.799C84.591 35.7903 84.565 35.786 84.539 35.786C83.785 35.786 83.1956 36.0243 82.771 36.501C82.3463 36.969 82.134 37.6233 82.134 38.464V42H81.484ZM89.1784 42.052C88.4938 42.052 87.8871 41.9047 87.3584 41.61C86.8384 41.3153 86.4268 40.908 86.1234 40.388C85.8288 39.868 85.6814 39.2743 85.6814 38.607C85.6814 37.931 85.8201 37.3373 86.0974 36.826C86.3834 36.306 86.7734 35.8987 87.2674 35.604C87.7614 35.3093 88.3161 35.162 88.9314 35.162C89.5468 35.162 90.0971 35.305 90.5824 35.591C91.0764 35.877 91.4621 36.28 91.7394 36.8C92.0254 37.3113 92.1684 37.905 92.1684 38.581C92.1684 38.607 92.1641 38.6373 92.1554 38.672C92.1554 38.698 92.1554 38.7283 92.1554 38.763H86.1624V38.256H91.8044L91.5444 38.503C91.5531 37.9743 91.4404 37.502 91.2064 37.086C90.9811 36.6613 90.6734 36.332 90.2834 36.098C89.8934 35.8553 89.4428 35.734 88.9314 35.734C88.4288 35.734 87.9781 35.8553 87.5794 36.098C87.1894 36.332 86.8818 36.6613 86.6564 37.086C86.4311 37.502 86.3184 37.9787 86.3184 38.516V38.633C86.3184 39.1877 86.4398 39.6817 86.6824 40.115C86.9338 40.5397 87.2761 40.8733 87.7094 41.116C88.1428 41.35 88.6368 41.467 89.1914 41.467C89.6248 41.467 90.0278 41.389 90.4004 41.233C90.7818 41.077 91.1024 40.8387 91.3624 40.518L91.7394 40.947C91.4448 41.311 91.0721 41.5883 90.6214 41.779C90.1794 41.961 89.6984 42.052 89.1784 42.052Z" fill="#292D32"/>
<defs>
<linearGradient id="paint0_linear_2736_3365" x1="225.141" y1="-17.5303" x2="222.995" y2="199" gradientUnits="userSpaceOnUse">
<stop stop-color="#A41B34"/>
<stop offset="1" stop-color="white" stop-opacity="0.63"/>
</linearGradient>
</defs>
</svg>
