<svg width="17" height="29" viewBox="0 0 17 29" fill="none" xmlns="http://www.w3.org/2000/svg">
<path d="M0.588205 27.5125C0.211578 27.1358 0 26.6249 0 26.0922C0 25.5595 0.211578 25.0486 0.588205 24.6718L11.2218 14.0382L0.588205 3.40466C0.222252 3.02576 0.0197568 2.51828 0.0243341 1.99153C0.0289114 1.46478 0.240194 0.960903 0.612677 0.58842C0.98516 0.215937 1.48904 0.00465327 2.01579 7.59448e-05C2.54254 -0.00450138 3.05002 0.197994 3.42892 0.563948L15.4829 12.6179C15.8595 12.9946 16.0711 13.5055 16.0711 14.0382C16.0711 14.571 15.8595 15.0819 15.4829 15.4586L3.42892 27.5125C3.05218 27.8892 2.54127 28.1007 2.00856 28.1007C1.47585 28.1007 0.964947 27.8892 0.588205 27.5125Z" fill="#A41B34"/>
</svg>
