<svg width="20" height="20" viewBox="0 0 20 20" fill="none" xmlns="http://www.w3.org/2000/svg">
<path d="M8.05218 2.29227C6.55848 2.29227 5.12596 2.88564 4.06975 3.94185C3.01355 4.99805 2.42018 6.43058 2.42018 7.92427C2.42018 9.41797 3.01355 10.8505 4.06975 11.9067C5.12596 12.9629 6.55848 13.5563 8.05218 13.5563C9.54588 13.5563 10.9784 12.9629 12.0346 11.9067C13.0908 10.8505 13.6842 9.41797 13.6842 7.92427C13.6842 6.43058 13.0908 4.99805 12.0346 3.94185C10.9784 2.88564 9.54588 2.29227 8.05218 2.29227ZM0.542847 7.92427C0.543018 6.72922 0.828406 5.55146 1.37529 4.48889C1.92218 3.42631 2.71477 2.5096 3.6872 1.81495C4.65962 1.12029 5.78379 0.667756 6.96629 0.494945C8.14878 0.322133 9.35544 0.434039 10.486 0.821362C11.6165 1.20868 12.6383 1.86024 13.4664 2.72187C14.2945 3.58351 14.905 4.63034 15.2472 5.77536C15.5893 6.92039 15.6532 8.13054 15.4336 9.30525C15.214 10.48 14.7172 11.5853 13.9846 12.5294L19.0412 17.586C19.2121 17.763 19.3067 18.0001 19.3046 18.2462C19.3025 18.4923 19.2038 18.7278 19.0297 18.9018C18.8557 19.0758 18.6203 19.1746 18.3741 19.1767C18.128 19.1788 17.8909 19.0842 17.7139 18.9132L12.6573 13.8566C11.5473 14.7184 10.2177 15.2515 8.81979 15.3951C7.42187 15.5388 6.0117 15.2873 4.74962 14.6692C3.48754 14.0512 2.42421 13.0914 1.68053 11.8991C0.936861 10.7067 0.542691 9.32955 0.542847 7.92427Z" fill="#BABABA"/>
</svg>
